<svg width="171" height="58" viewBox="0 0 171 58" fill="none" xmlns="http://www.w3.org/2000/svg">
<path d="M7.98336 38.9954C6.54176 35.9641 5.71737 32.5792 5.71737 29.0003C5.71737 24.4699 7.01467 20.2399 9.25066 16.661C8.15196 15.4839 7.01896 14.2521 5.86739 12.9715C2.72129 17.5248 0.869629 23.047 0.869629 29.0003C0.869629 33.6414 2.00977 38.0123 3.99716 41.8743C5.01585 40.5549 6.39602 39.5459 7.98336 38.9954Z" fill="#4B76A5"/>
<path d="M49.7086 18.9866C51.1559 22.0222 51.9832 25.4128 51.9832 29.0003C51.9832 33.5121 50.6959 37.7277 48.4756 41.298C49.5743 42.4751 50.7087 43.7069 51.8603 44.9875C54.9907 40.4428 56.8309 34.935 56.8309 29.0003C56.8309 24.3607 55.6922 19.9898 53.7048 16.1292C52.6804 17.4429 51.2959 18.4433 49.7086 18.9866Z" fill="#4B76A5"/>
<path d="M41.6446 3.99545C37.8056 1.99759 33.4622 0.852051 28.8502 0.852051C22.1522 0.852051 16 3.23367 11.178 7.19634C12.5381 8.24988 13.8483 9.28906 15.1013 10.2966C18.9489 7.42918 23.7052 5.72884 28.8502 5.72884C32.4163 5.72884 35.7853 6.56105 38.8042 8.01704C39.3443 6.42019 40.3387 5.026 41.6446 3.99545Z" fill="#4B76A5"/>
<path d="M16.053 54.0024C19.892 56.0017 24.2368 57.1486 28.8503 57.1486C35.5582 57.1486 41.7219 54.7598 46.5467 50.7842C45.1851 49.7307 43.8764 48.6915 42.6234 47.6839C38.7729 50.5643 34.0066 52.2718 28.8503 52.2718C25.2913 52.2718 21.928 51.4425 18.9133 49.9923C18.3676 51.5891 17.3631 52.9776 16.053 54.0024Z" fill="#4B76A5"/>
<path d="M12.0267 52.3394C11.6267 52.4371 11.2123 52.4946 10.7823 52.4946C7.86335 52.4946 5.49592 50.113 5.49592 47.1766C5.49592 46.7439 5.55307 46.3257 5.65022 45.9232C6.17029 43.7572 8.0048 42.1072 10.2608 41.8844C10.4322 41.8671 10.6065 41.8585 10.7823 41.8585C10.8394 41.8585 10.8966 41.8643 10.9537 41.8657C13.7355 41.9562 15.9715 44.2042 16.0601 47.0041C16.0615 47.0616 16.0687 47.1176 16.0687 47.1766C16.0687 47.3533 16.0601 47.5287 16.0429 47.7012C15.8215 49.9707 14.1813 51.8162 12.0267 52.3394ZM45.6409 5.64836C46.0595 5.54056 46.4938 5.47875 46.9453 5.47875C49.8657 5.47875 52.2317 7.85894 52.2317 10.7968C52.2317 11.2496 52.1688 11.6879 52.0631 12.1076C51.5187 14.2636 49.6699 15.8935 47.4082 16.0904C47.2554 16.1048 47.1011 16.1149 46.9453 16.1149C46.8882 16.1149 46.8324 16.1077 46.7739 16.1048C43.9921 16.0157 41.7561 13.7677 41.6675 10.9678C41.6661 10.9103 41.659 10.8543 41.659 10.7968C41.659 10.6387 41.669 10.4849 41.6818 10.3311C41.879 8.05585 43.4977 6.19597 45.6409 5.64836ZM50.4958 46.8029C49.4013 45.5811 48.2912 44.3752 47.1753 43.1765C46.5681 42.5225 45.9595 41.8671 45.3465 41.2175C41.3346 36.999 37.2055 32.9069 32.9822 28.9184L43.2477 18.5913C44.2721 19.0858 45.4051 19.389 46.6038 19.4365C46.7196 19.4437 46.831 19.448 46.9453 19.448C47.2554 19.448 47.5211 19.4279 47.694 19.4135C48.3912 19.3517 49.0656 19.2051 49.7085 18.9866C51.2959 18.4433 52.6817 17.4415 53.7047 16.1292C54.4291 15.2022 54.9749 14.1213 55.2763 12.9298C55.4549 12.2212 55.5464 11.504 55.5464 10.7968C55.5464 6.02493 51.6873 2.1442 46.9453 2.1442C46.2424 2.1442 45.5294 2.23475 44.8251 2.41585C43.6406 2.71912 42.5662 3.26817 41.6447 3.99545C40.3388 5.026 39.3444 6.42019 38.8043 8.01704C38.5857 8.66383 38.44 9.34224 38.38 10.0437C38.3643 10.219 38.3457 10.4863 38.3457 10.7968C38.3457 10.9118 38.3485 11.0268 38.3571 11.1403C38.4028 12.3462 38.7043 13.486 39.1958 14.5166L28.7702 25.0061C24.4268 21.0362 19.9891 17.167 15.4329 13.4314C14.7385 12.868 14.0413 12.3089 13.3455 11.7512C12.0682 10.7264 10.7851 9.70876 9.48784 8.70839C7.46902 7.15035 5.42162 5.62536 3.32708 4.14924C2.54698 3.59875 1.62258 4.60487 2.2298 5.34365C3.85714 7.32714 5.53164 9.26032 7.2347 11.1604C8.32912 12.3822 9.43926 13.5866 10.5537 14.7853C11.1638 15.4422 11.7724 16.0976 12.3853 16.7487C16.3987 20.9672 20.5278 25.0592 24.7483 29.0521L14.4799 39.3806C13.4555 38.8862 12.3225 38.5829 11.1238 38.5354C11.008 38.5283 10.8966 38.524 10.7823 38.524C10.5065 38.524 10.2222 38.5383 9.93789 38.5656C9.2621 38.6332 8.6063 38.7798 7.98337 38.9954C6.39603 39.5459 5.01586 40.5563 3.99716 41.8743C3.26564 42.8215 2.71986 43.9254 2.42697 45.1413C2.26409 45.8183 2.18122 46.5025 2.18122 47.1766C2.18122 51.947 6.04027 55.8277 10.7823 55.8277C11.4524 55.8277 12.1325 55.7444 12.8054 55.5819C14.0141 55.2873 15.1114 54.7368 16.0529 54.0023C17.3631 52.9775 18.3661 51.5891 18.9133 49.9922C19.129 49.3641 19.2748 48.7059 19.3405 48.0246C19.3691 47.74 19.3833 47.454 19.3833 47.1766C19.3833 47.0601 19.3791 46.9452 19.3719 46.8316C19.3233 45.6257 19.0233 44.4859 18.5318 43.4554L28.9574 32.9687C33.2965 36.9415 37.7342 40.8093 42.2905 44.5463C42.9834 45.1111 43.6821 45.6703 44.3793 46.2294C45.6552 47.2527 46.9382 48.2689 48.2355 49.2707C50.2629 50.8345 52.3217 52.3652 54.4262 53.8457C55.2078 54.3947 56.1293 53.3915 55.5221 52.6513C53.889 50.6577 52.2074 48.7145 50.4958 46.8029Z" fill="#F06823"/>
<path d="M91.6109 5.38821V7.97537C91.3895 7.94663 91.1952 7.94663 91.0023 7.94663C88.1548 7.94663 86.3846 9.70014 86.3846 12.9255V20.2701H83.73V12.9125C83.73 7.97537 86.3846 5.38821 91.6109 5.38821Z" fill="#4B76A5"/>
<path d="M138.022 30.7007V33.2864C137.801 33.2591 137.607 33.2591 137.414 33.2591C134.566 33.2591 132.796 35.0112 132.796 38.2379V45.5812H130.141V38.2236C130.141 33.2864 132.796 30.7007 138.022 30.7007Z" fill="#4B76A5"/>
<path d="M63.7102 10.5337C63.7102 4.77582 68.0793 0.576004 73.9686 0.576004C76.9547 0.576004 79.5536 1.60512 81.3238 3.60729L79.5264 5.36081C78.0334 3.77546 76.2089 3.05249 74.0786 3.05249C69.7095 3.05249 66.4748 6.22176 66.4748 10.5337C66.4748 14.8456 69.7095 18.0163 74.0786 18.0163C76.2089 18.0163 78.0334 17.2661 79.5264 15.6793L81.3238 17.4328C79.5536 19.435 76.9547 20.4928 73.9415 20.4928C68.0793 20.4928 63.7102 16.2916 63.7102 10.5337Z" fill="#4B76A5"/>
<path d="M95.1226 11.869H104.524C104.247 9.394 102.395 7.64192 99.8232 7.64192C97.2786 7.64192 95.3984 9.36525 95.1226 11.869ZM107.013 13.7893H95.1226C95.4541 16.3764 97.5286 18.0998 100.432 18.0998C102.146 18.0998 103.584 17.5162 104.662 16.3204L106.127 18.0437C104.8 19.6018 102.782 20.4369 100.349 20.4369C95.6198 20.4369 92.468 17.2935 92.468 12.8982C92.468 8.53161 95.5927 5.38821 99.8232 5.38821C104.054 5.38821 107.067 8.44825 107.067 12.9815C107.067 13.2043 107.04 13.5378 107.013 13.7893Z" fill="#4B76A5"/>
<path d="M133.222 19.4077C132.42 20.1034 131.203 20.4368 130.014 20.4368C127.055 20.4368 125.369 18.7954 125.369 15.8188V7.72527H122.88V5.52763H125.369V0.841995H128.022V5.52763H132.226V7.72527H128.022V15.7081C128.022 17.2934 128.853 18.1831 130.318 18.1831C131.093 18.1831 131.839 17.9331 132.392 17.4875L133.222 19.4077Z" fill="#4B76A5"/>
<path d="M128.288 44.7202C127.487 45.4144 126.269 45.7493 125.081 45.7493C122.123 45.7493 120.436 44.1079 120.436 41.1312V33.0363H117.948V30.8387H120.436V26.153H123.09V30.8387H127.294V33.0363H123.09V41.0191C123.09 42.6059 123.92 43.4956 125.385 43.4956C126.159 43.4956 126.906 43.2455 127.459 42.8L128.288 44.7202Z" fill="#4B76A5"/>
<path d="M135.249 5.52763H137.904V20.2701H135.249V5.52763ZM134.779 2.3138C134.779 1.34074 135.552 0.561722 136.576 0.561722C137.599 0.561722 138.374 1.31344 138.374 2.25919C138.374 3.26099 137.627 4.03857 136.576 4.03857C135.552 4.03857 134.779 3.2883 134.779 2.3138Z" fill="#4B76A5"/>
<path d="M155.296 5.52763L148.881 20.2701H146.17L139.755 5.52763H142.521L147.553 17.3495L152.697 5.52763H155.296Z" fill="#4B76A5"/>
<path d="M157.978 11.869H167.379C167.103 9.394 165.25 7.64192 162.68 7.64192C160.135 7.64192 158.255 9.36525 157.978 11.869ZM169.868 13.7893H157.978C158.309 16.3764 160.384 18.0998 163.287 18.0998C165.001 18.0998 166.439 17.5162 167.517 16.3204L168.983 18.0437C167.656 19.6018 165.637 20.4369 163.204 20.4369C158.476 20.4369 155.324 17.2935 155.324 12.8982C155.324 8.53161 158.448 5.38821 162.68 5.38821C166.909 5.38821 169.923 8.44825 169.923 12.9815C169.923 13.2043 169.895 13.5378 169.868 13.7893Z" fill="#4B76A5"/>
<path d="M79.3322 43.1622V45.5812H65.2861V26.1099H78.945V28.5303H68.0508V34.511H77.7562V36.8754H68.0508V43.1622H79.3322Z" fill="#4B76A5"/>
<path d="M81.8582 26.1099H84.5128V45.5812H81.8582V26.1099Z" fill="#4B76A5"/>
<path d="M89.7891 37.1815H99.1903C98.9131 34.705 97.0615 32.9529 94.4897 32.9529C91.9451 32.9529 90.0649 34.6777 89.7891 37.1815ZM101.679 39.1003H89.7891C90.1206 41.6875 92.1951 43.4123 95.0984 43.4123C96.8129 43.4123 98.2502 42.8287 99.3289 41.6314L100.793 43.3562C99.466 44.9142 97.4472 45.7479 95.0155 45.7479C90.2863 45.7479 87.1345 42.6059 87.1345 38.2106C87.1345 33.8441 90.2592 30.7007 94.4897 30.7007C98.7202 30.7007 101.733 33.7593 101.733 38.294C101.733 38.5168 101.706 38.8502 101.679 39.1003Z" fill="#4B76A5"/>
<path d="M103.284 38.2106C103.284 33.8153 106.518 30.7007 111.025 30.7007C113.652 30.7007 115.837 31.7844 116.998 33.8441L114.979 35.1506C114.039 33.7047 112.602 33.0363 110.998 33.0363C108.121 33.0363 105.965 35.0672 105.965 38.2106C105.965 41.4086 108.121 43.4123 110.998 43.4123C112.602 43.4123 114.039 42.7439 114.979 41.298L116.998 42.5772C115.837 44.6368 113.652 45.7479 111.025 45.7479C106.518 45.7479 103.284 42.6059 103.284 38.2106Z" fill="#4B76A5"/>
<path d="M151.22 38.2106C151.22 35.0672 149.118 33.0363 146.298 33.0363C143.477 33.0363 141.349 35.0672 141.349 38.2106C141.349 41.354 143.477 43.4123 146.298 43.4123C149.118 43.4123 151.22 41.354 151.22 38.2106ZM138.667 38.2106C138.667 33.8153 141.901 30.7007 146.298 30.7007C150.694 30.7007 153.901 33.8153 153.901 38.2106C153.901 42.6059 150.694 45.7479 146.298 45.7479C141.901 45.7479 138.667 42.6059 138.667 38.2106Z" fill="#4B76A5"/>
<path d="M163.94 30.7007C167.507 30.7007 170.023 32.7589 170.023 37.0982V45.5812H167.369V37.4043C167.369 34.511 165.931 33.0924 163.415 33.0924H162.724C160.208 33.0924 158.769 34.511 158.769 37.4043V45.5812H156.115V37.0982C156.115 32.7589 158.632 30.7007 162.198 30.7007H163.94Z" fill="#4B76A5"/>
<path d="M118.737 17.7103V13.7045H114.645C112.018 13.7045 111.272 14.7336 111.272 15.9855C111.272 17.4602 112.488 18.3786 114.506 18.3786C117.16 18.3786 118.737 17.7103 118.737 17.7103ZM121.392 11.3689V19.895C121.392 19.895 117.301 20.4369 114.065 20.4369C110.746 20.4369 108.644 18.656 108.644 16.0976C108.644 13.7332 110.166 11.7857 114.534 11.7857H118.737V11.2582C118.737 9.00449 117.438 7.69653 114.811 7.69653C113.069 7.69653 111.299 8.30883 110.166 9.28189L109.06 7.27971C110.58 6.05513 112.765 5.38821 115.115 5.38821C119.124 5.38821 121.392 7.33577 121.392 11.3689Z" fill="#4B76A5"/>
<path d="M70.3882 50.8834V51.5733H68.265V57.4102H67.5235V51.5733H65.4104V50.8834H70.3882Z" fill="#F06823"/>
<path d="M73.3157 50.8834V53.8385H77.2262V50.8834H77.9677V57.4102H77.2262V54.5198H73.3157V57.4102H72.5742V50.8834H73.3157Z" fill="#F06823"/>
<path d="M85.4457 50.8834V51.5733H81.7852V53.7638H85.0571V54.445H81.7852V56.7189H85.5657V57.4102H81.0437V50.8834H85.4457Z" fill="#F06823"/>
<path d="M92.0981 50.8834L93.8869 53.4289L95.6942 50.8834H96.5643L94.3598 54.0167L96.7501 57.4102H95.8614L93.8869 54.6592L91.9309 57.4102H91.0608L93.4425 54.0527L91.2265 50.8834H92.0981Z" fill="#F06823"/>
<path d="M100.901 54.8561H98.7231V54.3243H100.901V54.8561Z" fill="#F06823"/>
<path d="M106.054 54.6506C107.23 54.6506 107.897 54.1188 107.897 53.094C107.897 52.0965 107.23 51.5733 106.054 51.5733H104.33V54.6506H106.054ZM107.833 57.4102L106.471 55.3204C106.341 55.3304 106.201 55.3405 106.054 55.3405H104.33V57.4102H103.588V50.8834H106.054C107.676 50.8834 108.612 51.6854 108.612 53.0753C108.612 54.1461 108.083 54.8834 107.147 55.1809L108.676 57.4102H107.833Z" fill="#F06823"/>
<path d="M115.199 55.0516L113.726 51.6955L112.272 55.0516H115.199ZM115.497 55.7415H111.965L111.242 57.4102H110.455L113.365 50.8834H114.134L117.035 57.4102H116.23L115.497 55.7415Z" fill="#F06823"/>
<path d="M121.037 55.1436V57.4102H120.304V55.1623L117.794 50.8834H118.563L120.666 54.3056L122.742 50.8834H123.502L121.037 55.1436Z" fill="#F06823"/>
<path d="M133.548 53.094C133.548 52.095 132.87 51.5733 131.703 51.5733H130.034V54.6506H131.703C132.87 54.6506 133.548 54.1188 133.548 53.094ZM134.26 53.0739C134.26 54.5112 133.335 55.3391 131.73 55.3391H130.034V57.4102H129.293V50.8834H131.73C133.335 50.8834 134.26 51.6854 134.26 53.0739Z" fill="#F06823"/>
<path d="M141.007 50.8834V51.5733H137.345V53.7638H140.618V54.445H137.345V56.7189H141.127V57.4102H136.605V50.8834H141.007Z" fill="#F06823"/>
<path d="M143.887 54.1461C143.887 55.592 145.092 56.7577 146.538 56.7577C147.984 56.7577 149.171 55.592 149.171 54.1461C149.171 52.7016 147.984 51.5546 146.538 51.5546C145.092 51.5546 143.887 52.7016 143.887 54.1461ZM149.929 54.1461C149.929 55.983 148.428 57.4375 146.538 57.4375C144.639 57.4375 143.137 55.983 143.137 54.1461C143.137 52.3106 144.639 50.8647 146.538 50.8647C148.428 50.8647 149.929 52.3106 149.929 54.1461Z" fill="#F06823"/>
<path d="M156.649 53.094C156.649 52.095 155.972 51.5733 154.804 51.5733H153.136V54.6506H154.804C155.972 54.6506 156.649 54.1188 156.649 53.094ZM157.362 53.0739C157.362 54.5112 156.435 55.3391 154.831 55.3391H153.136V57.4102H152.394V50.8834H154.831C156.435 50.8834 157.362 51.6854 157.362 53.0739Z" fill="#F06823"/>
<path d="M160.447 50.8834V56.7189H163.293V57.4102H159.705V50.8834H160.447Z" fill="#F06823"/>
<path d="M170.011 50.8834V51.5733H166.349V53.7638H169.621V54.445H166.349V56.7189H170.131V57.4102H165.607V50.8834H170.011Z" fill="#F06823"/>
</svg>
